<svg xmlns="http://www.w3.org/2000/svg" viewBox="0 0 267 251" width="267" height="251">
	<style>
		tspan { white-space:pre }
		.shp0 { fill: #e260cf } 
		.shp1 { fill: #ac3aef } 
		.shp2 { fill: #1f1f42 } 
	</style>
	<g id="Layer">
		<g id="Layer_1">
			<path id="XMLID_70_" class="shp0" d="M191.73 62.54C191.37 62.54 190.9 62.42 190.54 62.18L116.85 6.84L116.85 55.44C116.85 56.53 115.9 57.49 114.83 57.49C113.76 57.49 112.81 56.53 112.81 55.44L112.81 2.75C112.81 2.03 113.28 1.31 113.88 0.95C114.59 0.58 115.42 0.7 116.02 1.19L192.92 58.93C193.75 59.66 193.99 60.86 193.39 61.82C192.92 62.18 192.32 62.54 191.73 62.54Z" />
			<path id="XMLID_67_" fill-rule="evenodd" class="shp0" d="M196.01 70.12C192.56 70.12 189.83 67.24 189.83 63.87C189.83 60.38 192.68 57.61 196.01 57.61C199.45 57.61 202.19 60.5 202.19 63.87C202.19 67.36 199.45 70.12 196.01 70.12ZM196.01 61.58C194.82 61.58 193.75 62.54 193.75 63.87C193.75 65.07 194.7 66.15 196.01 66.15C197.31 66.15 198.27 65.19 198.27 63.87C198.15 62.54 197.2 61.58 196.01 61.58Z" />
			<path id="XMLID_66_" class="shp1" d="M196.01 120.29C195.53 120.29 195.17 120.17 194.82 119.93L125.41 68.44C124.46 67.72 124.34 66.51 124.93 65.55C125.65 64.59 126.83 64.47 127.79 65.07L193.99 114.16L193.99 83.12L149.06 49.43C148.23 48.71 147.99 47.5 148.58 46.54C149.3 45.7 150.49 45.46 151.44 46.06L197.2 80.35C197.67 80.71 198.03 81.31 198.03 82.03L198.03 118.13C198.03 118.85 197.55 119.57 196.96 119.93C196.6 120.17 196.24 120.29 196.01 120.29Z" />
			<path id="XMLID_63_" fill-rule="evenodd" class="shp1" d="M122.32 68.8C118.87 68.8 116.14 65.91 116.14 62.54C116.14 59.17 118.99 56.29 122.32 56.29C125.65 56.29 128.5 59.17 128.5 62.54C128.5 65.91 125.76 68.8 122.32 68.8ZM122.32 60.26C121.13 60.26 120.06 61.22 120.06 62.54C120.06 63.87 121.01 64.83 122.32 64.83C123.63 64.83 124.58 63.87 124.58 62.54C124.58 61.22 123.63 60.26 122.32 60.26Z" />
			<path id="XMLID_60_" fill-rule="evenodd" class="shp1" d="M145.26 102.12C141.81 102.12 139.08 99.24 139.08 95.87C139.08 92.38 141.93 89.61 145.26 89.61C148.7 89.61 151.44 92.5 151.44 95.87C151.56 99.24 148.7 102.12 145.26 102.12ZM145.26 93.46C144.07 93.46 143 94.42 143 95.75C143 97.07 143.95 98.03 145.26 98.03C146.56 98.03 147.51 97.07 147.51 95.75C147.51 94.42 146.45 93.46 145.26 93.46Z" />
			<path id="XMLID_59_" class="shp0" d="M137.65 157.23C137.17 157.23 136.82 157.11 136.34 156.74L65.51 99.48C65.03 99.12 64.79 98.52 64.79 97.91C64.79 97.31 65.03 96.71 65.62 96.35L111.03 60.98C111.86 60.26 113.17 60.5 113.88 61.34C114.59 62.18 114.35 63.51 113.52 64.23L70.14 98.03L138.96 153.74C139.79 154.46 139.91 155.66 139.31 156.62C138.84 156.86 138.24 157.23 137.65 157.23Z" />
			<path id="XMLID_56_" fill-rule="evenodd" class="shp0" d="M141.81 164.68C138.36 164.68 135.63 161.8 135.63 158.43C135.63 154.94 138.48 152.17 141.81 152.17C145.14 152.17 147.99 155.06 147.99 158.43C148.11 161.8 145.26 164.68 141.81 164.68ZM141.81 156.02C140.62 156.02 139.55 156.98 139.55 158.31C139.55 159.63 140.5 160.59 141.81 160.59C143.12 160.59 144.07 159.63 144.07 158.31C144.07 156.98 143.12 156.02 141.81 156.02Z" />
			<path id="XMLID_55_" class="shp0" d="M152.03 156.02C151.44 156.02 150.84 155.78 150.49 155.3C149.77 154.46 150.01 153.14 150.84 152.41L181.86 127.87C182.7 127.15 184 127.39 184.72 128.23C185.43 129.07 185.19 130.4 184.36 131.12L153.34 155.66C152.86 155.9 152.39 156.02 152.03 156.02Z" />
			<path id="XMLID_47_" fill-rule="evenodd" class="shp0" d="M187.09 131.48C183.65 131.48 180.91 128.59 180.91 125.22C180.91 121.73 183.77 118.97 187.09 118.97C190.42 118.97 193.27 121.85 193.27 125.22C193.27 128.59 190.54 131.48 187.09 131.48ZM187.09 122.94C185.9 122.94 184.83 123.9 184.83 125.22C184.83 126.55 185.79 127.51 187.09 127.51C188.4 127.51 189.35 126.55 189.35 125.22C189.35 123.9 188.28 122.94 187.09 122.94Z" />
			<path id="XMLID_45_" class="shp0" d="M82.26 112.47C81.67 112.47 81.08 112.23 80.72 111.75C80.01 110.91 80.12 109.58 81.08 108.86L105.2 89.37C105.92 88.77 106.99 88.77 107.7 89.37L114.83 95.39L125.29 85.88C126.12 85.16 127.43 85.16 128.14 86C128.85 86.85 128.85 88.17 128.02 88.89L116.38 99.6C115.66 100.32 114.47 100.32 113.76 99.6L106.51 93.58L83.57 111.99C83.21 112.35 82.74 112.47 82.26 112.47Z" />
			<path id="XMLID_44_" class="shp1" d="M142.64 123.78C142.17 123.78 141.69 123.66 141.33 123.3L128.97 113.07C128.5 112.71 128.26 112.11 128.26 111.63C128.26 111.03 128.5 110.55 128.85 110.06L141.22 97.79C142.05 96.95 143.24 97.07 144.07 97.79C144.9 98.52 144.78 99.84 144.07 100.68L133.25 111.39L143.83 120.17C144.66 120.89 144.78 122.22 144.07 123.06C143.83 123.54 143.24 123.78 142.64 123.78Z" />
			<path id="XMLID_130_" class="shp1" d="M150.72 120.77C149.65 119.81 148.23 119.21 146.68 119.21C145.02 119.21 143.47 119.93 142.29 121.13C140.03 123.54 140.26 127.39 142.64 129.67C143.71 130.64 145.14 131.24 146.68 131.24C147.28 131.24 147.87 131.12 148.47 131C148.7 130.88 148.82 130.76 148.94 130.52C148.94 130.28 148.94 130.04 148.7 129.92L145.26 126.79L145.49 124.14L147.99 123.66L151.44 126.79C151.56 126.91 151.67 126.91 151.91 126.91C152.03 126.91 152.03 126.91 152.15 126.91C152.39 126.79 152.51 126.67 152.63 126.43C152.98 124.26 152.27 122.1 150.72 120.77Z" />
			<path id="XMLID_41_" fill-rule="evenodd" class="shp1" d="M147.04 51.35C143.59 51.35 140.86 48.47 140.86 45.1C140.86 41.61 143.71 38.84 147.04 38.84C150.37 38.84 153.22 41.73 153.22 45.1C153.22 48.47 150.37 51.35 147.04 51.35ZM147.04 42.81C145.85 42.81 144.78 43.77 144.78 45.1C144.78 46.3 145.73 47.38 147.04 47.38C148.35 47.38 149.3 46.42 149.3 45.1C149.18 43.77 148.23 42.81 147.04 42.81Z" />
			<path id="XMLID_26_" fill-rule="evenodd" class="shp0" d="M136.82 83.48C136.82 83.84 136.82 84.2 136.82 84.44C136.82 84.8 136.82 85.04 136.7 85.4C136.58 85.52 136.46 85.76 136.22 85.76L135.04 85.88L134.68 86.72L135.39 87.69C135.51 87.81 135.51 88.05 135.39 88.29C135.04 88.77 134.68 89.25 134.2 89.61C134.08 89.73 133.97 89.73 133.85 89.73C133.73 89.73 133.73 89.61 133.61 89.61L132.66 89.01L131.94 89.49L131.94 90.7C131.94 90.94 131.83 91.06 131.59 91.18C130.99 91.42 130.4 91.54 129.81 91.54L129.69 91.54C129.57 91.42 129.45 91.3 129.33 91.18L128.85 90.09L128.02 89.97L127.31 90.94C127.19 91.18 127.07 91.18 126.83 91.18C126.72 91.18 126.72 91.18 126.72 91.18C126.12 91.06 125.53 90.82 125.05 90.45C124.81 90.33 124.81 90.09 124.81 89.85L125.05 88.65L124.46 88.05L123.39 88.41C123.27 88.41 123.27 88.41 123.15 88.41C123.03 88.41 122.91 88.29 122.79 88.17C122.44 87.69 122.08 87.21 121.84 86.6C121.72 86.36 121.84 86.12 121.96 86L122.79 85.28L122.67 84.44L121.6 84.08C121.37 84.08 121.25 83.84 121.25 83.6C121.25 83.36 121.25 83 121.25 82.75C121.25 82.39 121.25 82.15 121.37 81.79C121.49 81.67 121.6 81.43 121.84 81.43L123.03 81.31L123.39 80.59L122.67 79.63C122.56 79.51 122.56 79.27 122.67 79.03C123.03 78.54 123.39 78.06 123.86 77.7C123.98 77.58 124.1 77.58 124.22 77.58C124.34 77.58 124.34 77.7 124.46 77.7L125.41 78.3L126.24 77.82L126.24 76.62C126.24 76.38 126.36 76.26 126.6 76.14C127.19 75.9 127.79 75.78 128.38 75.78L128.5 75.78C128.62 75.9 128.74 76.02 128.85 76.14L129.33 77.22L130.16 77.34L130.88 76.38C130.99 76.14 131.11 76.14 131.35 76.14C131.47 76.14 131.47 76.14 131.47 76.14C131.94 76.26 132.54 76.5 133.01 76.86C133.25 76.98 133.25 77.22 133.25 77.46L133.01 78.66L133.61 79.27L134.68 78.9C134.8 78.9 134.8 78.9 134.92 78.9C135.04 78.9 135.15 79.03 135.27 79.15C135.75 79.63 135.99 80.11 136.22 80.71C136.34 80.95 136.22 81.19 136.1 81.31L135.27 82.03L135.39 82.88L136.46 83.24C136.7 83.24 136.82 83.48 136.82 83.48ZM128.97 86C130.28 86 131.23 84.92 131.23 83.72C131.23 82.39 130.28 81.43 128.97 81.43C127.67 81.43 126.72 82.51 126.72 83.72C126.72 84.92 127.67 86 128.97 86Z" />
		</g>
	</g>
	<g id="Layer">
		<g id="Layer">
			<g id="Layer">
				<path id="Layer" fill-rule="evenodd" class="shp2" d="M6.95 233.22L8.62 232.93L8.62 246.63C8.24 246.74 7.75 246.84 7.15 246.95C6.55 247.06 5.86 247.11 5.08 247.11C4.36 247.11 3.71 247 3.13 246.77C2.56 246.54 2.07 246.22 1.66 245.8C1.25 245.38 0.93 244.87 0.71 244.26C0.49 243.65 0.38 242.97 0.38 242.22C0.38 241.5 0.47 240.84 0.66 240.24C0.85 239.64 1.12 239.12 1.48 238.69C1.84 238.26 2.28 237.92 2.8 237.68C3.32 237.44 3.92 237.32 4.59 237.32C5.13 237.32 5.61 237.39 6.02 237.54C6.43 237.68 6.74 237.82 6.95 237.95L6.95 233.22ZM6.95 239.52C6.74 239.35 6.45 239.18 6.07 239.03C5.68 238.88 5.26 238.8 4.81 238.8C4.33 238.8 3.92 238.89 3.57 239.06C3.23 239.23 2.95 239.47 2.74 239.78C2.52 240.09 2.36 240.45 2.27 240.87C2.17 241.29 2.12 241.74 2.12 242.22C2.12 243.31 2.39 244.15 2.93 244.75C3.47 245.34 4.19 245.64 5.09 245.64C5.55 245.64 5.93 245.62 6.24 245.57C6.55 245.53 6.78 245.49 6.95 245.44L6.95 239.52ZM13.98 242.23C13.98 241.4 14.1 240.68 14.34 240.07C14.58 239.45 14.9 238.94 15.29 238.53C15.69 238.12 16.15 237.81 16.66 237.61C17.18 237.4 17.71 237.3 18.25 237.3C19.51 237.3 20.47 237.69 21.14 238.48C21.81 239.27 22.15 240.46 22.15 242.07C22.15 242.14 22.15 242.24 22.15 242.35C22.15 242.46 22.14 242.57 22.13 242.67L15.73 242.67C15.8 243.64 16.08 244.37 16.57 244.88C17.06 245.39 17.83 245.64 18.88 245.64C19.47 245.64 19.96 245.59 20.36 245.48C20.76 245.38 21.06 245.28 21.27 245.19L21.5 246.59C21.3 246.7 20.94 246.81 20.43 246.93C19.92 247.05 19.35 247.11 18.7 247.11C17.88 247.11 17.17 246.99 16.58 246.74C15.99 246.49 15.5 246.16 15.11 245.73C14.73 245.3 14.45 244.78 14.26 244.19C14.07 243.6 13.98 242.94 13.98 242.23ZM20.41 241.32C20.42 240.56 20.23 239.94 19.84 239.45C19.45 238.96 18.91 238.72 18.23 238.72C17.84 238.72 17.5 238.8 17.21 238.95C16.92 239.1 16.67 239.29 16.46 239.53C16.26 239.77 16.1 240.05 15.99 240.36C15.88 240.67 15.8 240.99 15.76 241.32L20.41 241.32ZM29.74 245.69C30.43 245.69 30.93 245.6 31.26 245.42C31.59 245.24 31.76 244.95 31.76 244.56C31.76 244.15 31.6 243.82 31.27 243.58C30.95 243.34 30.42 243.07 29.67 242.77C29.31 242.63 28.97 242.48 28.64 242.33C28.31 242.18 28.02 242.01 27.78 241.8C27.54 241.6 27.35 241.35 27.2 241.06C27.06 240.77 26.99 240.42 26.99 240C26.99 239.17 27.3 238.52 27.91 238.03C28.52 237.54 29.35 237.3 30.41 237.3C30.67 237.3 30.93 237.32 31.2 237.35C31.47 237.38 31.71 237.41 31.94 237.46C32.17 237.5 32.37 237.54 32.54 237.59C32.71 237.64 32.85 237.68 32.95 237.72L32.64 239.16C32.46 239.06 32.18 238.96 31.79 238.86C31.41 238.76 30.95 238.71 30.41 238.71C29.94 238.71 29.53 238.8 29.18 238.99C28.83 239.17 28.66 239.46 28.66 239.86C28.66 240.06 28.7 240.24 28.78 240.4C28.86 240.55 28.98 240.69 29.14 240.82C29.3 240.95 29.5 241.06 29.74 241.17C29.98 241.28 30.27 241.39 30.61 241.51C31.05 241.68 31.44 241.85 31.79 242.01C32.14 242.17 32.44 242.36 32.69 242.58C32.93 242.79 33.12 243.05 33.25 243.36C33.38 243.67 33.45 244.04 33.45 244.48C33.45 245.35 33.13 246 32.49 246.45C31.84 246.89 30.93 247.11 29.74 247.11C28.91 247.11 28.27 247.04 27.8 246.91C27.33 246.77 27.01 246.66 26.84 246.59L27.15 245.15C27.34 245.22 27.65 245.33 28.07 245.47C28.49 245.62 29.05 245.69 29.74 245.69ZM40.27 237.54L40.27 246.9L38.59 246.9L38.59 237.54L40.27 237.54ZM39.42 235.84C39.12 235.84 38.87 235.74 38.66 235.55C38.45 235.35 38.34 235.08 38.34 234.75C38.34 234.41 38.45 234.14 38.66 233.95C38.87 233.75 39.12 233.65 39.42 233.65C39.72 233.65 39.98 233.75 40.19 233.95C40.4 234.14 40.5 234.41 40.5 234.75C40.5 235.08 40.4 235.35 40.19 235.55C39.98 235.74 39.72 235.84 39.42 235.84ZM52.01 245.96C51.87 246.05 51.59 246.18 51.18 246.33C50.77 246.48 50.28 246.55 49.73 246.55C49.16 246.55 48.63 246.46 48.14 246.28C47.64 246.1 47.2 245.82 46.83 245.45C46.46 245.07 46.16 244.6 45.95 244.03C45.73 243.47 45.62 242.8 45.62 242.02C45.62 241.33 45.72 240.71 45.93 240.14C46.14 239.57 46.43 239.07 46.82 238.66C47.21 238.25 47.69 237.92 48.25 237.69C48.82 237.46 49.45 237.34 50.16 237.34C50.94 237.34 51.62 237.4 52.2 237.51C52.79 237.62 53.28 237.73 53.67 237.82L53.67 246.18C53.67 247.62 53.3 248.66 52.55 249.31C51.81 249.96 50.68 250.28 49.17 250.28C48.58 250.28 48.03 250.23 47.51 250.14C46.98 250.04 46.53 249.92 46.15 249.79L46.45 248.34C46.79 248.47 47.2 248.58 47.69 248.69C48.17 248.79 48.68 248.84 49.21 248.84C50.2 248.84 50.92 248.64 51.36 248.25C51.79 247.85 52.01 247.22 52.01 246.36L52.01 245.96ZM52 239.01C51.83 238.96 51.6 238.92 51.32 238.88C51.04 238.83 50.66 238.81 50.18 238.81C49.28 238.81 48.59 239.11 48.1 239.7C47.61 240.29 47.37 241.07 47.37 242.04C47.37 242.58 47.44 243.04 47.58 243.42C47.71 243.81 47.9 244.13 48.14 244.38C48.37 244.63 48.64 244.81 48.94 244.93C49.25 245.05 49.56 245.11 49.89 245.11C50.34 245.11 50.74 245.05 51.11 244.93C51.48 244.8 51.78 244.65 52 244.48L52 239.01ZM59.55 246.9L59.55 237.81C59.94 237.71 60.45 237.61 61.08 237.5C61.71 237.39 62.45 237.34 63.28 237.34C64.02 237.34 64.64 237.44 65.13 237.65C65.62 237.86 66.02 238.16 66.31 238.54C66.6 238.91 66.81 239.36 66.93 239.89C67.05 240.42 67.11 241.01 67.11 241.64L67.11 246.9L65.44 246.9L65.44 242C65.44 241.43 65.4 240.93 65.32 240.52C65.24 240.11 65.11 239.78 64.93 239.53C64.75 239.28 64.51 239.1 64.21 238.99C63.91 238.87 63.54 238.81 63.1 238.81C62.92 238.81 62.73 238.82 62.54 238.83C62.35 238.84 62.16 238.86 61.99 238.88C61.82 238.89 61.66 238.91 61.52 238.94C61.38 238.97 61.28 238.98 61.22 238.99L61.22 246.9L59.55 246.9ZM74.86 245.92C74.86 246.25 74.75 246.53 74.54 246.77C74.32 247.01 74.03 247.13 73.66 247.13C73.29 247.13 72.99 247.01 72.77 246.77C72.56 246.53 72.45 246.25 72.45 245.92C72.45 245.6 72.56 245.32 72.77 245.08C72.99 244.84 73.29 244.72 73.66 244.72C74.03 244.72 74.32 244.84 74.54 245.08C74.75 245.32 74.86 245.6 74.86 245.92ZM93.52 233.22L95.19 232.93L95.19 246.63C94.8 246.74 94.31 246.84 93.71 246.95C93.11 247.06 92.42 247.11 91.64 247.11C90.92 247.11 90.27 247 89.7 246.77C89.13 246.54 88.63 246.22 88.22 245.8C87.81 245.38 87.5 244.87 87.28 244.26C87.06 243.65 86.95 242.97 86.95 242.22C86.95 241.5 87.04 240.84 87.23 240.24C87.41 239.64 87.68 239.12 88.04 238.69C88.4 238.26 88.84 237.92 89.37 237.68C89.89 237.44 90.49 237.32 91.16 237.32C91.7 237.32 92.18 237.39 92.59 237.54C93 237.68 93.31 237.82 93.52 237.95L93.52 233.22ZM93.52 239.52C93.31 239.35 93.02 239.18 92.63 239.03C92.25 238.88 91.83 238.8 91.37 238.8C90.89 238.8 90.48 238.89 90.14 239.06C89.8 239.23 89.52 239.47 89.3 239.78C89.09 240.09 88.93 240.45 88.84 240.87C88.74 241.29 88.69 241.74 88.69 242.22C88.69 243.31 88.96 244.15 89.5 244.75C90.04 245.34 90.76 245.64 91.66 245.64C92.12 245.64 92.5 245.62 92.8 245.57C93.11 245.53 93.35 245.49 93.52 245.44L93.52 239.52ZM100.55 242.23C100.55 241.4 100.67 240.68 100.91 240.07C101.15 239.45 101.47 238.94 101.86 238.53C102.26 238.12 102.72 237.81 103.23 237.61C103.74 237.4 104.27 237.3 104.81 237.3C106.07 237.3 107.04 237.69 107.71 238.48C108.38 239.27 108.72 240.46 108.72 242.07C108.72 242.14 108.72 242.24 108.72 242.35C108.72 242.46 108.71 242.57 108.7 242.67L102.29 242.67C102.36 243.64 102.65 244.37 103.14 244.88C103.63 245.39 104.4 245.64 105.44 245.64C106.03 245.64 106.53 245.59 106.93 245.48C107.33 245.38 107.63 245.28 107.84 245.19L108.07 246.59C107.87 246.7 107.51 246.81 107 246.93C106.49 247.05 105.91 247.11 105.26 247.11C104.45 247.11 103.74 246.99 103.15 246.74C102.56 246.49 102.07 246.16 101.68 245.73C101.3 245.3 101.02 244.78 100.83 244.19C100.64 243.6 100.55 242.94 100.55 242.23ZM106.97 241.32C106.98 240.56 106.8 239.94 106.41 239.45C106.02 238.96 105.48 238.72 104.8 238.72C104.41 238.72 104.07 238.8 103.78 238.95C103.49 239.1 103.24 239.29 103.03 239.53C102.83 239.77 102.67 240.05 102.55 240.36C102.44 240.67 102.36 240.99 102.33 241.32L106.97 241.32ZM121.44 237.54C120.97 239.29 120.42 240.97 119.79 242.58C119.16 244.19 118.56 245.63 117.97 246.9L116.45 246.9C115.86 245.63 115.26 244.19 114.63 242.58C114 240.97 113.45 239.29 112.98 237.54L114.78 237.54C114.93 238.13 115.1 238.75 115.29 239.42C115.49 240.09 115.7 240.75 115.92 241.4C116.15 242.05 116.37 242.69 116.6 243.3C116.83 243.91 117.04 244.45 117.25 244.93C117.45 244.45 117.66 243.91 117.89 243.3C118.12 242.69 118.35 242.05 118.57 241.4C118.79 240.75 119 240.09 119.2 239.42C119.4 238.75 119.57 238.13 119.71 237.54L121.44 237.54ZM125.39 242.23C125.39 241.4 125.51 240.68 125.75 240.07C125.99 239.45 126.31 238.94 126.71 238.53C127.1 238.12 127.56 237.81 128.08 237.61C128.59 237.4 129.12 237.3 129.66 237.3C130.92 237.3 131.89 237.69 132.56 238.48C133.23 239.27 133.57 240.46 133.57 242.07C133.57 242.14 133.57 242.24 133.57 242.35C133.57 242.46 133.56 242.57 133.55 242.67L127.14 242.67C127.21 243.64 127.5 244.37 127.99 244.88C128.48 245.39 129.24 245.64 130.29 245.64C130.88 245.64 131.37 245.59 131.77 245.48C132.18 245.38 132.48 245.28 132.68 245.19L132.92 246.59C132.71 246.7 132.36 246.81 131.85 246.93C131.34 247.05 130.76 247.11 130.11 247.11C129.3 247.11 128.59 246.99 127.99 246.74C127.4 246.49 126.91 246.16 126.53 245.73C126.14 245.3 125.86 244.78 125.67 244.19C125.48 243.6 125.39 242.94 125.39 242.23ZM131.82 241.32C131.83 240.56 131.64 239.94 131.25 239.45C130.86 238.96 130.33 238.72 129.64 238.72C129.26 238.72 128.92 238.8 128.63 238.95C128.33 239.1 128.08 239.29 127.88 239.53C127.67 239.77 127.51 240.05 127.4 240.36C127.29 240.67 127.21 240.99 127.18 241.32L131.82 241.32ZM141.79 247.08C140.76 247.05 140.02 246.83 139.59 246.41C139.16 245.99 138.94 245.34 138.94 244.45L138.94 233.22L140.62 232.93L140.62 244.18C140.62 244.45 140.64 244.68 140.69 244.86C140.74 245.04 140.81 245.18 140.92 245.29C141.03 245.4 141.17 245.49 141.35 245.54C141.53 245.59 141.75 245.64 142.02 245.67L141.79 247.08ZM155.15 242.22C155.15 242.96 155.04 243.63 154.83 244.23C154.62 244.83 154.31 245.35 153.92 245.78C153.53 246.21 153.07 246.55 152.53 246.78C151.99 247.01 151.4 247.13 150.76 247.13C150.13 247.13 149.54 247.01 149 246.78C148.46 246.55 147.99 246.21 147.6 245.78C147.21 245.35 146.91 244.83 146.69 244.23C146.48 243.63 146.37 242.96 146.37 242.22C146.37 241.49 146.48 240.82 146.69 240.21C146.91 239.6 147.21 239.08 147.6 238.65C147.99 238.22 148.46 237.88 149 237.65C149.54 237.42 150.13 237.3 150.76 237.3C151.4 237.3 151.99 237.42 152.53 237.65C153.07 237.88 153.53 238.22 153.92 238.65C154.31 239.08 154.62 239.6 154.83 240.21C155.04 240.82 155.15 241.49 155.15 242.22ZM153.41 242.22C153.41 241.16 153.17 240.32 152.7 239.71C152.23 239.09 151.58 238.78 150.76 238.78C149.95 238.78 149.3 239.09 148.83 239.71C148.36 240.32 148.12 241.16 148.12 242.22C148.12 243.27 148.36 244.11 148.83 244.73C149.3 245.34 149.95 245.65 150.76 245.65C151.58 245.65 152.23 245.34 152.7 244.73C153.17 244.11 153.41 243.27 153.41 242.22ZM168.76 242.23C168.76 242.94 168.67 243.6 168.48 244.2C168.29 244.8 168.02 245.31 167.66 245.74C167.3 246.17 166.86 246.51 166.34 246.75C165.81 246.99 165.21 247.11 164.54 247.11C164 247.11 163.52 247.04 163.11 246.9C162.7 246.75 162.39 246.61 162.19 246.48L162.19 250.23L160.51 250.23L160.51 237.82C160.91 237.73 161.41 237.62 162 237.51C162.59 237.4 163.28 237.34 164.06 237.34C164.78 237.34 165.43 237.45 166 237.68C166.58 237.91 167.07 238.23 167.48 238.65C167.89 239.07 168.2 239.58 168.42 240.19C168.65 240.8 168.76 241.48 168.76 242.23ZM167.01 242.23C167.01 241.14 166.74 240.3 166.2 239.71C165.66 239.12 164.94 238.83 164.04 238.83C163.53 238.83 163.14 238.85 162.86 238.89C162.58 238.92 162.36 238.96 162.19 239.01L162.19 244.92C162.39 245.09 162.68 245.25 163.07 245.4C163.45 245.56 163.87 245.64 164.33 245.64C164.81 245.64 165.22 245.55 165.56 245.38C165.9 245.2 166.18 244.96 166.4 244.66C166.61 244.35 166.77 243.99 166.87 243.58C166.96 243.16 167.01 242.71 167.01 242.23ZM176.09 245.92C176.09 246.25 175.98 246.53 175.77 246.77C175.56 247.01 175.26 247.13 174.89 247.13C174.52 247.13 174.22 247.01 174.01 246.77C173.79 246.53 173.68 246.25 173.68 245.92C173.68 245.6 173.79 245.32 174.01 245.08C174.22 244.84 174.52 244.72 174.89 244.72C175.26 244.72 175.56 244.84 175.77 245.08C175.98 245.32 176.09 245.6 176.09 245.92ZM194.75 233.22L196.42 232.93L196.42 246.63C196.04 246.74 195.55 246.84 194.95 246.95C194.35 247.06 193.66 247.11 192.88 247.11C192.16 247.11 191.51 247 190.93 246.77C190.36 246.54 189.87 246.22 189.46 245.8C189.05 245.38 188.73 244.87 188.51 244.26C188.29 243.65 188.18 242.97 188.18 242.22C188.18 241.5 188.27 240.84 188.46 240.24C188.65 239.64 188.92 239.12 189.28 238.69C189.64 238.26 190.08 237.92 190.6 237.68C191.12 237.44 191.72 237.32 192.39 237.32C192.93 237.32 193.41 237.39 193.82 237.54C194.23 237.68 194.54 237.82 194.75 237.95L194.75 233.22ZM194.75 239.52C194.54 239.35 194.25 239.18 193.87 239.03C193.48 238.88 193.06 238.8 192.61 238.8C192.13 238.8 191.72 238.89 191.37 239.06C191.03 239.23 190.75 239.47 190.54 239.78C190.32 240.09 190.16 240.45 190.07 240.87C189.97 241.29 189.92 241.74 189.92 242.22C189.92 243.31 190.19 244.15 190.73 244.75C191.27 245.34 191.99 245.64 192.89 245.64C193.35 245.64 193.73 245.62 194.04 245.57C194.35 245.53 194.58 245.49 194.75 245.44L194.75 239.52ZM201.78 242.23C201.78 241.4 201.9 240.68 202.14 240.07C202.38 239.45 202.7 238.94 203.09 238.53C203.49 238.12 203.95 237.81 204.46 237.61C204.98 237.4 205.51 237.3 206.05 237.3C207.31 237.3 208.27 237.69 208.94 238.48C209.61 239.27 209.95 240.46 209.95 242.07C209.95 242.14 209.95 242.24 209.95 242.35C209.95 242.46 209.94 242.57 209.93 242.67L203.53 242.67C203.6 243.64 203.88 244.37 204.37 244.88C204.86 245.39 205.63 245.64 206.68 245.64C207.27 245.64 207.76 245.59 208.16 245.48C208.56 245.38 208.86 245.28 209.07 245.19L209.3 246.59C209.1 246.7 208.74 246.81 208.23 246.93C207.72 247.05 207.15 247.11 206.5 247.11C205.68 247.11 204.97 246.99 204.38 246.74C203.79 246.49 203.3 246.16 202.91 245.73C202.53 245.3 202.25 244.78 202.06 244.19C201.87 243.6 201.78 242.94 201.78 242.23ZM208.21 241.32C208.22 240.56 208.03 239.94 207.64 239.45C207.25 238.96 206.71 238.72 206.03 238.72C205.64 238.72 205.3 238.8 205.01 238.95C204.72 239.1 204.47 239.29 204.26 239.53C204.06 239.77 203.9 240.05 203.79 240.36C203.68 240.67 203.6 240.99 203.56 241.32L208.21 241.32ZM218.17 247.08C217.14 247.05 216.41 246.83 215.98 246.41C215.55 245.99 215.33 245.34 215.33 244.45L215.33 233.22L217 232.93L217 244.18C217 244.45 217.02 244.68 217.07 244.86C217.12 245.04 217.2 245.18 217.31 245.29C217.42 245.4 217.56 245.49 217.74 245.54C217.92 245.59 218.14 245.64 218.41 245.67L218.17 247.08ZM224.95 237.54L224.95 246.9L223.28 246.9L223.28 237.54L224.95 237.54ZM224.11 235.84C223.81 235.84 223.55 235.74 223.34 235.55C223.13 235.35 223.03 235.08 223.03 234.75C223.03 234.41 223.13 234.14 223.34 233.95C223.55 233.75 223.81 233.65 224.11 233.65C224.41 233.65 224.66 233.75 224.87 233.95C225.08 234.14 225.19 234.41 225.19 234.75C225.19 235.08 225.08 235.35 224.87 235.55C224.66 235.74 224.41 235.84 224.11 235.84ZM238.14 237.54C237.67 239.29 237.12 240.97 236.49 242.58C235.86 244.19 235.26 245.63 234.67 246.9L233.15 246.9C232.56 245.63 231.96 244.19 231.33 242.58C230.7 240.97 230.15 239.29 229.68 237.54L231.48 237.54C231.63 238.13 231.8 238.75 231.99 239.42C232.19 240.09 232.4 240.75 232.62 241.4C232.85 242.05 233.07 242.69 233.3 243.3C233.53 243.91 233.74 244.45 233.95 244.93C234.15 244.45 234.36 243.91 234.59 243.3C234.82 242.69 235.05 242.05 235.27 241.4C235.49 240.75 235.7 240.09 235.9 239.42C236.1 238.75 236.27 238.13 236.41 237.54L238.14 237.54ZM242.09 242.23C242.09 241.4 242.21 240.68 242.45 240.07C242.69 239.45 243.01 238.94 243.41 238.53C243.8 238.12 244.26 237.81 244.78 237.61C245.29 237.4 245.82 237.3 246.36 237.3C247.62 237.3 248.59 237.69 249.26 238.48C249.93 239.27 250.27 240.46 250.27 242.07C250.27 242.14 250.27 242.24 250.27 242.35C250.27 242.46 250.26 242.57 250.25 242.67L243.84 242.67C243.91 243.64 244.2 244.37 244.69 244.88C245.18 245.39 245.94 245.64 246.99 245.64C247.58 245.64 248.07 245.59 248.47 245.48C248.88 245.38 249.18 245.28 249.38 245.19L249.62 246.59C249.41 246.7 249.06 246.81 248.55 246.93C248.04 247.05 247.46 247.11 246.81 247.11C246 247.11 245.29 246.99 244.69 246.74C244.1 246.49 243.61 246.16 243.23 245.73C242.84 245.3 242.56 244.78 242.37 244.19C242.18 243.6 242.09 242.94 242.09 242.23ZM248.52 241.32C248.53 240.56 248.34 239.94 247.95 239.45C247.56 238.96 247.03 238.72 246.34 238.72C245.96 238.72 245.62 238.8 245.32 238.95C245.03 239.1 244.78 239.29 244.58 239.53C244.37 239.77 244.21 240.05 244.1 240.36C243.99 240.67 243.91 240.99 243.88 241.32L248.52 241.32ZM259.13 237.34C259.28 237.34 259.44 237.35 259.63 237.37C259.82 237.38 260 237.41 260.18 237.44C260.36 237.47 260.52 237.5 260.67 237.53C260.82 237.56 260.94 237.58 261.01 237.61L260.72 239.07C260.59 239.02 260.37 238.96 260.06 238.9C259.75 238.83 259.36 238.8 258.88 238.8C258.57 238.8 258.26 238.83 257.96 238.9C257.65 238.96 257.45 239 257.35 239.03L257.35 246.9L255.68 246.9L255.68 237.93C256.07 237.79 256.56 237.66 257.15 237.53C257.74 237.4 258.4 237.34 259.13 237.34ZM266.62 245.92C266.62 246.25 266.51 246.53 266.29 246.77C266.08 247.01 265.78 247.13 265.41 247.13C265.04 247.13 264.74 247.01 264.53 246.77C264.31 246.53 264.2 246.25 264.2 245.92C264.2 245.6 264.31 245.32 264.53 245.08C264.74 244.84 265.04 244.72 265.41 244.72C265.78 244.72 266.08 244.84 266.29 245.08C266.51 245.32 266.62 245.6 266.62 245.92Z" />
			</g>
		</g>
	</g>
	<g id="Layer">
		<g id="Layer">
			<g id="Layer">
				<path id="Layer" fill-rule="evenodd" class="shp2" d="M88.04 194.35L88.04 214.56C88.04 215.99 87.89 217.33 87.59 218.56C87.28 219.79 86.75 220.87 85.99 221.8C85.24 222.73 84.22 223.47 82.94 224C81.67 224.53 80.07 224.79 78.15 224.79C77.18 224.79 76.28 224.71 75.46 224.55C74.64 224.4 73.9 224.2 73.25 223.95C72.59 223.71 72.02 223.45 71.53 223.18C71.04 222.91 70.65 222.64 70.36 222.38L72 219.07C72.6 219.5 73.38 219.96 74.34 220.43C75.3 220.9 76.5 221.14 77.93 221.14C80 221.14 81.5 220.62 82.45 219.57C83.4 218.52 83.87 216.72 83.87 214.17L83.87 194.35L88.04 194.35ZM111.6 201.96C111.6 202.99 111.39 203.99 110.98 204.95C110.56 205.91 110.01 206.85 109.32 207.78C108.63 208.71 107.86 209.63 107 210.54C106.14 211.44 105.28 212.32 104.42 213.18C103.93 213.67 103.37 214.24 102.72 214.9C102.07 215.56 101.46 216.25 100.89 216.96C100.32 217.68 99.84 218.37 99.45 219.03C99.06 219.69 98.87 220.26 98.87 220.75L112.59 220.75L112.59 224.15L94.53 224.15C94.5 223.98 94.49 223.8 94.49 223.63C94.49 223.46 94.49 223.3 94.49 223.16C94.49 221.81 94.71 220.56 95.15 219.39C95.6 218.23 96.18 217.13 96.9 216.1C97.61 215.07 98.41 214.1 99.3 213.18C100.19 212.26 101.07 211.37 101.93 210.52C102.64 209.83 103.32 209.14 103.97 208.47C104.62 207.8 105.19 207.12 105.69 206.45C106.19 205.78 106.59 205.08 106.89 204.37C107.19 203.65 107.34 202.89 107.34 202.09C107.34 201.23 107.21 200.5 106.94 199.89C106.67 199.29 106.3 198.79 105.84 198.39C105.38 197.99 104.84 197.7 104.23 197.51C103.61 197.32 102.96 197.23 102.27 197.23C101.44 197.23 100.68 197.34 99.99 197.57C99.3 197.8 98.69 198.07 98.14 198.37C97.59 198.67 97.14 198.98 96.77 199.31C96.4 199.64 96.11 199.9 95.91 200.07L93.93 197.23C94.19 196.94 94.58 196.59 95.09 196.17C95.6 195.76 96.22 195.36 96.94 194.99C97.65 194.62 98.46 194.3 99.35 194.05C100.24 193.79 101.2 193.66 102.23 193.66C105.35 193.66 107.69 194.38 109.26 195.83C110.82 197.28 111.6 199.32 111.6 201.96ZM123.94 221.82C123.94 222.59 123.68 223.27 123.17 223.84C122.65 224.41 121.95 224.7 121.06 224.7C120.17 224.7 119.47 224.41 118.95 223.84C118.44 223.27 118.18 222.59 118.18 221.82C118.18 221.05 118.44 220.37 118.95 219.8C119.47 219.23 120.17 218.94 121.06 218.94C121.95 218.94 122.65 219.23 123.17 219.8C123.68 220.37 123.94 221.05 123.94 221.82ZM144.24 191.47L148.24 190.78L148.24 223.5C147.32 223.76 146.14 224.02 144.71 224.27C143.28 224.53 141.63 224.66 139.77 224.66C138.05 224.66 136.5 224.39 135.12 223.84C133.75 223.3 132.57 222.53 131.6 221.52C130.62 220.52 129.87 219.3 129.34 217.85C128.81 216.4 128.54 214.78 128.54 212.97C128.54 211.25 128.76 209.67 129.21 208.24C129.66 206.81 130.31 205.57 131.17 204.54C132.03 203.51 133.08 202.7 134.33 202.13C135.58 201.56 137 201.27 138.61 201.27C139.9 201.27 141.03 201.44 142.02 201.79C143.01 202.13 143.75 202.46 144.24 202.77L144.24 191.47ZM144.24 206.52C143.75 206.11 143.05 205.73 142.13 205.36C141.22 204.99 140.21 204.8 139.12 204.8C137.97 204.8 136.99 205.01 136.18 205.42C135.36 205.83 134.69 206.41 134.18 207.14C133.66 207.87 133.29 208.74 133.06 209.74C132.83 210.75 132.71 211.82 132.71 212.97C132.71 215.58 133.36 217.59 134.65 219.01C135.94 220.43 137.66 221.14 139.81 221.14C140.9 221.14 141.81 221.09 142.54 220.99C143.27 220.89 143.84 220.78 144.24 220.66L144.24 206.52ZM153.87 213.01C153.87 211.03 154.16 209.3 154.73 207.83C155.3 206.35 156.06 205.12 157.01 204.15C157.96 203.18 159.05 202.45 160.28 201.96C161.51 201.47 162.77 201.23 164.06 201.23C167.07 201.23 169.38 202.17 170.98 204.04C172.59 205.92 173.39 208.78 173.39 212.62C173.39 212.79 173.39 213.02 173.39 213.29C173.39 213.56 173.38 213.81 173.35 214.04L158.04 214.04C158.21 216.36 158.89 218.12 160.06 219.33C161.24 220.54 163.08 221.14 165.57 221.14C166.97 221.14 168.15 221.02 169.11 220.77C170.07 220.53 170.8 220.29 171.29 220.06L171.84 223.41C171.35 223.67 170.5 223.94 169.29 224.23C168.07 224.52 166.69 224.66 165.14 224.66C163.19 224.66 161.5 224.37 160.08 223.78C158.67 223.19 157.5 222.38 156.58 221.35C155.66 220.32 154.98 219.09 154.54 217.67C154.09 216.26 153.87 214.7 153.87 213.01ZM169.22 210.82C169.25 209.01 168.8 207.53 167.87 206.37C166.94 205.2 165.65 204.62 164.02 204.62C163.1 204.62 162.29 204.8 161.59 205.16C160.89 205.52 160.29 205.99 159.8 206.56C159.31 207.13 158.93 207.79 158.66 208.54C158.39 209.29 158.22 210.05 158.13 210.82L169.22 210.82ZM196.61 201.79C195.5 205.97 194.19 209.98 192.68 213.83C191.17 217.67 189.72 221.11 188.31 224.15L184.7 224.15C183.29 221.11 181.84 217.67 180.34 213.83C178.83 209.98 177.52 205.97 176.4 201.79L180.7 201.79C181.05 203.19 181.46 204.69 181.93 206.28C182.4 207.87 182.9 209.45 183.43 211.01C183.96 212.57 184.5 214.08 185.05 215.55C185.59 217.01 186.1 218.31 186.59 219.46C187.08 218.31 187.59 217.01 188.14 215.55C188.69 214.08 189.22 212.57 189.75 211.01C190.28 209.45 190.79 207.87 191.26 206.28C191.73 204.69 192.14 203.19 192.48 201.79L196.61 201.79Z" />
			</g>
		</g>
	</g>
</svg>